<svg xmlns="http://www.w3.org/2000/svg" viewBox="0 0 372.4 66.52"><defs><style>.cls-1{fill:#00a3e0;}.cls-2{fill:#f0f8ff;}</style></defs><g id="Layer_2" data-name="Layer 2"><g id="Logo_Variations" data-name="Logo Variations"><path class="cls-1" d="M27.76,45.66V66.52C3,45.5,0,53.55,0,27.6V6.71C24.79,27.75,27.76,19.69,27.76,45.66Z"></path><path class="cls-1" d="M59.82,6.71V27.6c0,25.95-3,17.9-27.77,38.92V45.66C32.05,19.69,35,27.75,59.82,6.71Z"></path><path class="cls-2" d="M132.58,16,116.29,56.86h-9.91L90.06,16h9.28a4,4,0,0,1,2.32.68A3.52,3.52,0,0,1,103,18.48l7.52,20.68c.37.92.66,1.84.93,2.76a24.29,24.29,0,0,1,.92-2.81l7.7-20.7a3.63,3.63,0,0,1,1.31-1.73,3.86,3.86,0,0,1,2.26-.64Z"></path><path class="cls-2" d="M148.83,16V53.35a3.51,3.51,0,0,1-3.5,3.47h-8V19.48a3.5,3.5,0,0,1,3.5-3.49Z"></path><path class="cls-2" d="M148.83,3.48V10h-8a3.49,3.49,0,0,1-3.5-3.48V0h8A3.51,3.51,0,0,1,148.83,3.48Z"></path><path class="cls-2" d="M371.48,39.05a10.08,10.08,0,0,0-2.4-3.17,13.27,13.27,0,0,0-3.32-2.14c-1.17-.52-2.38-1-3.59-1.41s-2.38-.78-3.53-1.13a20,20,0,0,1-2.91-1.09,6.21,6.21,0,0,1-1.84-1.28,1.8,1.8,0,0,1-.53-1.38,2.59,2.59,0,0,1,1.17-2.23,6.23,6.23,0,0,1,3.75-1,10.31,10.31,0,0,1,2.77.34,16.81,16.81,0,0,1,2.19.79l1.79.85a3.76,3.76,0,0,0,3.51.09,3.42,3.42,0,0,0,1.14-1.19l2.6-4-.6-.59a17.69,17.69,0,0,0-5.85-3.67,22.26,22.26,0,0,0-14.43-.38,14.9,14.9,0,0,0-4.93,2.76,11.66,11.66,0,0,0-3.05,4.11,12.24,12.24,0,0,0-1,4.95,11.64,11.64,0,0,0,.93,4.8,10.26,10.26,0,0,0,2.4,3.39,13,13,0,0,0,3.34,2.24,32.52,32.52,0,0,0,3.69,1.46c1.23.41,2.42.78,3.57,1.13a20.08,20.08,0,0,1,2.92,1.09,6.29,6.29,0,0,1,1.85,1.29,2.12,2.12,0,0,1,.53,1.52,3.34,3.34,0,0,1-.27,1.36,2.87,2.87,0,0,1-.85,1.1,5.13,5.13,0,0,1-1.64.85,8.17,8.17,0,0,1-2.55.34,9.4,9.4,0,0,1-3.16-.43,15.06,15.06,0,0,1-2.25-1c-.67-.37-1.25-.71-1.75-1a4.19,4.19,0,0,0-4.19-.16,4.06,4.06,0,0,0-1.34,1.33L341,51.85l.64.57a17,17,0,0,0,2.76,2A21.58,21.58,0,0,0,347.84,56,23.21,23.21,0,0,0,351.68,57a23.84,23.84,0,0,0,11.07-.64A15.11,15.11,0,0,0,368,53.5a12.32,12.32,0,0,0,3.3-4.43,13.94,13.94,0,0,0,1.11-5.56A10,10,0,0,0,371.48,39.05Z"></path><path class="cls-2" d="M236.88,19.47V38.74c0,3.35-.65,6.43-1.66,7.8a5.57,5.57,0,0,1-4.82,2.13,5.64,5.64,0,0,1-4.9-2.14c-1-1.44-1.66-4.46-1.66-7.79l0-19.27A3.49,3.49,0,0,0,220.3,16h-8V39.81a21.12,21.12,0,0,0,1.24,6.58,16.85,16.85,0,0,0,3.69,5.91A16,16,0,0,0,223,56.08a21.52,21.52,0,0,0,14.76,0,16,16,0,0,0,5.66-3.78,16.81,16.81,0,0,0,3.64-5.91,21.65,21.65,0,0,0,1.24-6.57V16h-8A3.48,3.48,0,0,0,236.88,19.47Z"></path><path class="cls-2" d="M155.31,30.28V56.82h8a3.49,3.49,0,0,0,3.49-3.48V34.62c0-3.35.65-6.42,1.64-7.8a5.62,5.62,0,0,1,4.83-2.13h1.4a3.5,3.5,0,0,0,3.5-3.47V16h-8.54a16.05,16.05,0,0,0-5.82,1,12.78,12.78,0,0,0-4.61,3,13.51,13.51,0,0,0-2.87,4.73,17.07,17.07,0,0,0-1,5,2.94,2.94,0,0,0,0,.42"></path><path class="cls-2" d="M268,27.44c1.37-1.92,3.44-2.85,6.35-2.85s5.06.92,6.45,2.87,2.16,5,2.16,8.95-.73,6.91-2.16,8.9-3.48,2.84-6.45,2.84-5-.92-6.36-2.82-2.14-5-2.14-8.92S266.62,29.45,268,27.44Zm-12.42.26a24.86,24.86,0,0,0-1.43,8.63A24.86,24.86,0,0,0,255.57,45a19,19,0,0,0,4.12,6.7,17.91,17.91,0,0,0,6.46,4.25,24.17,24.17,0,0,0,16.6,0,18,18,0,0,0,6.46-4.25A19.12,19.12,0,0,0,293.3,45a24.64,24.64,0,0,0,1.44-8.63,24.48,24.48,0,0,0-1.45-8.64,18.79,18.79,0,0,0-4.13-6.58,18.39,18.39,0,0,0-6.46-4.21,24.28,24.28,0,0,0-16.6,0,18.06,18.06,0,0,0-10.53,10.8Z"></path><path class="cls-2" d="M312,19.47V38.74c0,3.35.65,6.43,1.65,7.8a6.61,6.61,0,0,0,9.73,0c1-1.44,1.66-4.46,1.66-7.79l0-19.27a3.49,3.49,0,0,1,3.5-3.47h8V39.81a21.11,21.11,0,0,1-1.23,6.58,16.85,16.85,0,0,1-3.69,5.91,15.91,15.91,0,0,1-5.74,3.78,21.49,21.49,0,0,1-14.75,0,16,16,0,0,1-5.67-3.78,16.81,16.81,0,0,1-3.64-5.91,21.06,21.06,0,0,1-1.24-6.57V16h8A3.48,3.48,0,0,1,312,19.47Z"></path><path class="cls-2" d="M195.22,24.7h7.46A2.75,2.75,0,0,0,205.44,22V16H195.22V8.87a2.77,2.77,0,0,0-2.77-2.76h-8.66V45.66c0,3.61,1,6.5,3,8.59s4.89,3.17,8.53,3.17a18.6,18.6,0,0,0,5.83-.91,15.17,15.17,0,0,0,5.05-2.76l.69-.56-3.28-5.3,0-.07a4.23,4.23,0,0,0-.76-.82,2.26,2.26,0,0,0-2.56-.07c-.21.13-.45.25-.72.39a8.1,8.1,0,0,1-.92.38,3.2,3.2,0,0,1-1.11.14,2,2,0,0,1-1.66-.67,3.11,3.11,0,0,1-.64-2.14Z"></path></g></g></svg>